<?xml version="1.0" encoding="UTF-8"?>
<svg id="Layer_1" data-name="Layer 1" xmlns="http://www.w3.org/2000/svg" viewBox="0 0 702.49 1036.4">
  <defs>
    <style>
      .cls-1 {
        fill: #c58c5c;
      }

      .cls-2 {
        fill: #578f6b;
      }

      .cls-3 {
        fill: #54889d;
      }
    </style>
  </defs>
  <path class="cls-2" d="M617.39,603.01c-49.48,71.81-172.72,71.73-214.02-25.43-2.21-5.19-9.97-3.44-9.62,2.19,7.95,129.37,67.72,189.58-14.02,412.17-1.09,2.96-3.78,5.04-6.91,5.36-35,3.51-68.57-2.16-87.67-7.42-5.22-1.44-7.69-7.42-4.95-12.09,132.66-226.01,18.55-324.62,65.34-492.7,1.14-4.11,5.26-6.61,9.46-5.87,6.24,1.11,12.67,1.69,19.22,1.69,16.08,0,31.35-3.48,45.1-9.72,5.11-2.32,10.96,1.11,11.55,6.7,8.77,83.66,84.34,140.79,130.14,91.21,43.61-47.21-12.85-114.19-88.29-127.55-5.74-1.02-8.59-7.51-5.53-12.47,6.41-10.35,11.14-21.85,13.8-34.13.89-4.12,5.11-6.95,9.28-6.35,131.04,18.77,185.08,130.26,127.11,214.41Z"/>
  <path class="cls-3" d="M667.68,280.72c-36.14,70.29-131.25,78.27-177.01,80.44-4.22.2-7.9-2.8-8.57-6.98-1.77-11.04-5.2-21.54-10.02-31.21-2.72-5.45,1.25-11.81,7.34-11.91,85.34-1.3,176.55-53.12,139.5-96.63-37.6-44.14-98.46,38.22-129.02,60.06-8.45,6.04-16.38,9.43-24,11.26-11.13,2.67-22.8.29-32.4-5.93-7.76-5.02-16.2-9.09-25.14-12.03-7.54-2.48-12.97-9.11-13.82-17-2.76-25.64-5.14-44.5-6.72-68.2-.32-4.78,3.48-8.83,8.27-8.83,11.18,0,23.67,1.32,37.79,3.77,4.23.73,7.2,4.57,6.84,8.85-1.63,19.4-6.66,45.69,10.31,50.39,7.11,2.03,15.13-.92,41.91-25.15,29.88-27.04,49.22-58.84,83.81-67.81,51.73-13.4,137.14,46.98,90.92,136.89Z"/>
  <path class="cls-3" d="M433.49,153.42c-13.76-1.82-24.26-2.65-39.54-3.16-4.09-.14-7.4-3.38-7.61-7.47-1.58-30.41-1.53-93.2-63.23-67.13-.55.23-1.09.53-1.58.89-56.06,40.54-5.81,132.33,35.34,174.74,4.37,4.5,1.93,11.97-4.22,13.2-10.47,2.1-20.4,5.69-29.55,10.55-2.99,1.59-6.67,1.03-9.1-1.32-27.06-26.16-92.64-100.17-68.95-184.09.1-.35.22-.7.37-1.04,33.18-77.85,102.77-67.7,109.05-66.61.31.05.62.09.94.11,7.37.4,88.25,7.45,87,123.62-.05,4.72-4.23,8.34-8.91,7.72Z"/>
  <path class="cls-3" d="M319.22,466.08c3.32,1.94,4.71,6.04,3.24,9.6-60.36,146.03-173.3,172.82-228.51,104.73-31.96-39.42-20.5-108.45,14.86-137.21s54.29-30.29,51.94-44.63c-1.59-9.74-28.5-15.46-65.08-31.94-63.43-28.57-86.39-105.59-24.57-158.54,66.43-56.89,165.03,21.35,222.88,78.43,2.97,2.93,3.03,7.69.19,10.75-6.36,6.83-11.85,14.49-16.3,22.78-2.34,4.37-8.08,5.48-11.85,2.27-62.37-53.18-138.27-97.63-166.73-64.2-33.68,39.57,48.44,100.45,158.19,104.42,4.19.15,7.52,3.59,7.47,7.78,0,.44,0,.88,0,1.32,0,8.32.93,16.42,2.69,24.21.79,3.5-.93,7.07-4.16,8.63-56.69,27.41-131.27,67.93-132.44,120.82-.94,42.46,46.92,48.19,82.54,19.8,25.87-20.62,45.92-43.21,72.44-93.06,2.42-4.55,8.52-5.45,12.22-1.86,6.31,6.1,13.35,11.45,20.98,15.9Z"/>
  <circle class="cls-1" cx="374.22" cy="371.65" r="79.17"/>
</svg>
